# xmcd CD database file
#
# Track frame offsets:
#	150
#	25495
#	43950
#	66300
#	86925
#	104587
#	126450
#	150150
#	175512
#
# Disc length: 2663 seconds
#
# Revision: 1
# Processed by: cddbd v1.5.2PL0 Copyright (c) Steve Scherf et al.
# Submitted via: CDex 1.70beta2
#
DISCID=7b0a6509
DTITLE=KneuKlid Romance - 「Chain」...
DYEAR=1996
DGENRE=Rock
TTITLE0=Wall
TTITLE1=素直に... 「miss take love」
TTITLE2=memorable
TTITLE3=To you
TTITLE4=ガーベラ ～眠りの中で～
TTITLE5=そばにいるうちに
TTITLE6=lechery
TTITLE7=past memories
TTITLE8=Deep Sorrow
EXTD=YEAR: 1996
EXTT0=
EXTT1=
EXTT2=
EXTT3=
EXTT4=
EXTT5=
EXTT6=
EXTT7=
EXTT8=
PLAYORDER=
